# xmcd
#
# Track frame offsets:
#	150
#	14296
#	28195
#	47314
#	68945
#	88512
#	116043
#	140770
#	154401
#	175895
#	191021
#	208253
#	231523
#	255673
#	275733
#	292527
#
# Disc length: 4121 seconds
#
# Revision: 1
# Processed by: cddbd v1.5.2PL0 Copyright (c) Steve Scherf et al.
# Submitted via: audiograbber 1.83.01
#
DISCID=ee101710
DTITLE=Amber Lawrence - Hometown Girl
DYEAR=2015
DGENRE=Country
TTITLE0=Take it somewhere
TTITLE1=Things that bring me down
TTITLE2=Honeysuckle
TTITLE3=Women like me
TTITLE4=25 words or less
TTITLE5=The lifesaver
TTITLE6=Always kiss me goodnight
TTITLE7=Bang bang
TTITLE8=Son of a preacher man
TTITLE9=I've got the blues
TTITLE10=Wrecking ball
TTITLE11=Good girls
TTITLE12=Superhero
TTITLE13=I will love you
TTITLE14=I wasn't expecting that
TTITLE15=Like i'm gonna lode you
EXTD=
EXTT0=
EXTT1=
EXTT2=
EXTT3=
EXTT4=
EXTT5=
EXTT6=
EXTT7=
EXTT8=
EXTT9=
EXTT10=
EXTT11=
EXTT12=
EXTT13=
EXTT14=
EXTT15=
PLAYORDER=
